<?xml version="1.0" ?><svg data-name="Layer 1" id="Layer_1" viewBox="0 0 150 150" xmlns="http://www.w3.org/2000/svg"><defs><style>.cls-1{fill:#13818d;}.cls-2{fill:#fff;}.cls-3{fill:#f9c774;}</style></defs><title/><circle class="cls-1" cx="75" cy="75" r="65"/><path class="cls-2" d="M98.25,76A23.19,23.19,0,1,0,62.1,95.2a2.63,2.63,0,0,0-.9,1.13,2.73,2.73,0,0,0,2,3.5,40.82,40.82,0,0,0,24.15,0,2.73,2.73,0,0,0,2-3.5,2.67,2.67,0,0,0-1.11-1.27A23.15,23.15,0,0,0,98.25,76Z"/><path class="cls-2" d="M87.13,102.71a2.3,2.3,0,0,1-1.68,3,34.49,34.49,0,0,1-20.39,0,2.3,2.3,0,0,1-1.68-3h0a2.45,2.45,0,0,1,3-1.32,30,30,0,0,0,17.75,0,2.45,2.45,0,0,1,3,1.32h0Z"/><path class="cls-3" d="M75,46.15a1.74,1.74,0,0,1-1.74-1.74V33.28a1.74,1.74,0,0,1,3.49,0V44.4A1.74,1.74,0,0,1,75,46.15Z"/><path class="cls-3" d="M116.06,75H104.4a1.74,1.74,0,1,1,0-3.49h11.67A1.74,1.74,0,0,1,116.06,75Z"/><path class="cls-3" d="M45.29,75H34.17a1.74,1.74,0,0,1,0-3.49H45.29A1.74,1.74,0,1,1,45.29,75Z"/><path class="cls-3" d="M53.53,55.71a1.73,1.73,0,0,1-1.23-.51l-7.87-7.87a1.74,1.74,0,1,1,2.46-2.46l7.87,7.87A1.74,1.74,0,0,1,53.53,55.71Z"/><path class="cls-3" d="M96.4,55.9a1.74,1.74,0,0,1-1.23-3l8.25-8.25a1.74,1.74,0,1,1,2.46,2.46l-8.25,8.25A1.74,1.74,0,0,1,96.4,55.9Z"/><path class="cls-2" d="M85.36,108.44a2.09,2.09,0,0,0-2.55-1.12,25.53,25.53,0,0,1-15.1,0,2.09,2.09,0,0,0-2.56,1.12A2,2,0,0,0,66.58,111a29.09,29.09,0,0,0,4,.93,1.5,1.5,0,0,0,0,.26c0,1.49,2.1,2.7,4.7,2.7s4.7-1.21,4.7-2.7a1.49,1.49,0,0,0,0-.26,29.12,29.12,0,0,0,4-.93A2,2,0,0,0,85.36,108.44Z"/></svg>